<svg width="24" height="24" viewBox="0 0 24 24" fill="none" xmlns="http://www.w3.org/2000/svg">
<g id="vuesax/bold/location">
<path id="Vector" d="M8.56655 20.3596L8.56669 20.3597C9.53083 21.2875 10.7655 21.75 12 21.75C13.235 21.75 14.4685 21.2872 15.4216 20.3614L15.4234 20.3596C18.256 17.636 21.2407 13.4489 20.1324 8.56081L8.56655 20.3596ZM8.56655 20.3596C5.73432 17.6363 2.74929 13.4392 3.85757 8.55081L8.56655 20.3596ZM12 2.25C15.3659 2.25 19.1461 4.22167 20.1324 8.56057L3.85762 8.55057C4.84361 4.21277 8.63275 2.25 11.99 2.25H11.9901H11.9901H11.9902H11.9902H11.9903H11.9903H11.9904H11.9905H11.9905H11.9906H11.9906H11.9907H11.9907H11.9908H11.9909H11.9909H11.991H11.991H11.9911H11.9911H11.9912H11.9912H11.9913H11.9913H11.9914H11.9914H11.9915H11.9916H11.9916H11.9917H11.9917H11.9918H11.9918H11.9919H11.9919H11.992H11.992H11.9921H11.9921H11.9922H11.9922H11.9923H11.9923H11.9924H11.9924H11.9925H11.9925H11.9926H11.9926H11.9927H11.9927H11.9927H11.9928H11.9928H11.9929H11.9929H11.993H11.993H11.9931H11.9931H11.9932H11.9932H11.9933H11.9933H11.9933H11.9934H11.9934H11.9935H11.9935H11.9936H11.9936H11.9937H11.9937H11.9937H11.9938H11.9938H11.9939H11.9939H11.994H11.994H11.994H11.9941H11.9941H11.9942H11.9942H11.9942H11.9943H11.9943H11.9944H11.9944H11.9944H11.9945H11.9945H11.9946H11.9946H11.9946H11.9947H11.9947H11.9948H11.9948H11.9948H11.9949H11.9949H11.9949H11.995H11.995H11.9951H11.9951H11.9951H11.9952H11.9952H11.9952H11.9953H11.9953H11.9953H11.9954H11.9954H11.9954H11.9955H11.9955H11.9955H11.9956H11.9956H11.9956H11.9957H11.9957H11.9957H11.9958H11.9958H11.9958H11.9959H11.9959H11.9959H11.996H11.996H11.996H11.9961H11.9961H11.9961H11.9962H11.9962H11.9962H11.9963H11.9963H11.9963H11.9963H11.9964H11.9964H11.9964H11.9965H11.9965H11.9965H11.9966H11.9966H11.9966H11.9966H11.9967H11.9967H11.9967H11.9968H11.9968H11.9968H11.9968H11.9969H11.9969H11.9969H11.9969H11.997H11.997H11.997H11.997H11.9971H11.9971H11.9971H11.9971H11.9972H11.9972H11.9972H11.9972H11.9973H11.9973H11.9973H11.9973H11.9974H11.9974H11.9974H11.9974H11.9975H11.9975H11.9975H11.9975H11.9976H11.9976H11.9976H11.9976H11.9976H11.9977H11.9977H11.9977H11.9977H11.9978H11.9978H11.9978H11.9978H11.9978H11.9979H11.9979H11.9979H11.9979H11.9979H11.998H11.998H11.998H11.998H11.998H11.9981H11.9981H11.9981H11.9981H11.9981H11.9982H11.9982H11.9982H11.9982H11.9982H11.9983H11.9983H11.9983H11.9983H11.9983H11.9983H11.9984H11.9984H11.9984H11.9984H11.9984H11.9985H11.9985H11.9985H11.9985H11.9985H11.9985H11.9985H11.9986H11.9986H11.9986H11.9986H11.9986H11.9986H11.9987H11.9987H11.9987H11.9987H11.9987H11.9987H11.9987H11.9988H11.9988H11.9988H11.9988H11.9988H11.9988H11.9988H11.9989H11.9989H11.9989H11.9989H11.9989H11.9989H11.9989H11.999H11.999H11.999H11.999H11.999H11.999H11.999H11.999H11.9991H11.9991H11.9991H11.9991H11.9991H11.9991H11.9991H11.9991H11.9992H11.9992H11.9992H11.9992H11.9992H11.9992H11.9992H11.9992H11.9992H11.9992H11.9993H11.9993H11.9993H11.9993H11.9993H11.9993H11.9993H11.9993H11.9993H11.9993H11.9994H11.9994H11.9994H11.9994H11.9994H11.9994H11.9994H11.9994H11.9994H11.9994H11.9994H11.9995H11.9995H11.9995H11.9995H11.9995H11.9995H11.9995H11.9995H11.9995H11.9995H11.9995H11.9995H11.9996H11.9996H11.9996H11.9996H11.9996H11.9996H11.9996H11.9996H11.9997H11.9997H11.9997H11.9997H11.9997H11.9997H11.9997H11.9997H11.9997H11.9998H11.9998H11.9998H11.9998H11.9998H11.9998H11.9998H11.9998H11.9998H11.9998H11.9998H11.9998H11.9999H11.9999H11.9999H11.9999H11.9999H11.9999H11.9999H11.9999H11.9999H11.9999H11.9999H12H12H12H12H12H12H12ZM8.35 10.31C8.35 12.3261 9.98386 13.96 12 13.96C14.0161 13.96 15.65 12.3261 15.65 10.31C15.65 8.29386 14.0161 6.66 12 6.66C9.98386 6.66 8.35 8.29386 8.35 10.31Z" fill="#F86A2E" stroke="#F86A2E"/>
</g>
</svg>
